<svg xmlns="http://www.w3.org/2000/svg" viewBox="0 0 320.1 106.1"><defs><style>.cls-1,.cls-2,.cls-3{fill:#231f20;}.cls-1{fill-rule:evenodd;}.cls-3{font-size:22px;font-family:Caladea-Bold, Caladea;font-weight:700;letter-spacing:0.23em;}.cls-4{letter-spacing:0.2em;}.cls-5{letter-spacing:0.12em;}.cls-6{letter-spacing:0.19em;}</style></defs><g id="Layer_2" data-name="Layer 2"><g id="Layer_1-2" data-name="Layer 1"><g id="cowboy_hat_vector_clip_art" data-name="cowboy hat vector clip art"><path class="cls-1" d="M152.45,14.6c-.06,1-.15,2-.26,2.84h0c0,.14,0,.28-.05.41-.1.95-.23,1.8-.34,2.48q-.12.7-.21,1.14c-.39,1.82-5.64,1-8.67.3l-.79-.17-1-.23-.36-.1a10.51,10.51,0,0,0-2-2.06,29.89,29.89,0,0,0-3.7-2.66,43.34,43.34,0,0,0-9.35-4.2A25.72,25.72,0,0,1,127,8.27c.23-.63.5-1.32.81-2.06.1-.25.21-.5.33-.76.29-.65.56-1.22.83-1.71.16-.29.31-.55.46-.8h0c.11-.16.21-.31.32-.45l.17-.22a4,4,0,0,1,.34-.37C131.35.77,132.75.39,135.3.05A5.39,5.39,0,0,1,136,0l.47,0A11.15,11.15,0,0,1,139,.56l.52.19.52.2.51.21.51.23.91.43c.68.35,1.33.71,1.92,1.06l.35.21.42.26.39.24.68.44.55.38.33.22-2.2-2.07s4.49.54,6.85,2.92a3.85,3.85,0,0,1,.83,1.66c.05.18.1.37.14.57.08.39.14.81.19,1.26l.06.69A37.22,37.22,0,0,1,152.45,14.6Z"/><path class="cls-1" d="M160.06,35.45A4.55,4.55,0,0,1,155.78,38l-.53,0L155,38h0l-.48-.07-.11,0-.63-.14c-.23-.06-.45-.12-.68-.2h0c-.23-.07-.47-.16-.71-.25s-.42-.16-.63-.26l-.32-.14c-.4-.18-.79-.37-1.18-.58l-1-.57a63.92,63.92,0,0,1-7.17-5.25c-8.66-5.94-19.31-8.16-24.72-8.68l-.41,0h-.1c-.36,0-.69-.06-1-.08-.45,0-.83,0-1.14,0a6.79,6.79,0,0,1-.92,0c-2.79-.2-3.59-1.83-3.44-3.43.16-1.77,5.75-7,15.28-4.79a26.58,26.58,0,0,1,10.79,5.19c.77.61,1.49,1.24,2.16,1.88l.09.08c.64.62,1.24,1.24,1.8,1.85,1.14,1.24,2.15,2.45,3.08,3.55C145.29,28,147,30.85,149,33.14a20.22,20.22,0,0,0,1.39,1.51,12.17,12.17,0,0,0,1,.84v0l.23.17.3.22.45.29c.17.1.33.2.5.28l.35.17.3.13.41.14a5.54,5.54,0,0,0,.55.14l.42.07.21,0,.51,0A7.69,7.69,0,0,0,160.06,35.45Z"/><path class="cls-1" d="M150.36,33.76a14,14,0,0,1-1.8-2.25,25.2,25.2,0,0,1-2.2-4.24l.17.05c.34.11.66.2,1,.28a10.16,10.16,0,0,0,1.29.26l.36.05h0c3.58.38,4.48-1.94,4.06-7.24,3.11.81,6.15,5.83,7.16,9,1.24-5.93-3-10.41-7.27-13L153,15a51.72,51.72,0,0,1,5,4C168.06,28.4,158.44,42,150.36,33.76Z"/><path class="cls-1" d="M152.49,9.66,152.43,9c-.05-.45-.11-.87-.19-1.26,0-.2-.09-.39-.14-.57a3.85,3.85,0,0,0-.83-1.66c-2.36-2.38-6.85-2.92-6.85-2.92l2.2,2.07-.33-.22L145.74,4l-.68-.44-.39-.24-.42-.26-.35-.21c-.59-.35-1.24-.71-1.92-1.06l-.91-.43-.51-.23L140.05,1l-.52-.2L139,.56A11.15,11.15,0,0,0,136.48,0L136,0a5.39,5.39,0,0,0-.71.05c-2.55.34-4,.72-5.06,1.84a4,4,0,0,0-.34.37l-.17.22c-.11.14-.21.29-.32.45h0c-.15.25-.3.51-.46.8-.27.49-.54,1.06-.83,1.71-.12.26-.23.51-.33.76-.31.74-.58,1.43-.81,2.06a25.72,25.72,0,0,0-1.18,4.09,43.34,43.34,0,0,1,9.35,4.2,29.89,29.89,0,0,1,3.7,2.66,10.51,10.51,0,0,1,2,2.06l.36.1,1,.23.79.17c3,.66,8.28,1.52,8.67-.3q.09-.43.21-1.14c.06-.34.11-.72.17-1.14s.11-.86.17-1.34c0-.13,0-.27.05-.41h0c.1-.89.19-1.86.26-2.84A37.22,37.22,0,0,0,152.49,9.66ZM158,19a51.72,51.72,0,0,0-5-4l.15,1.7c4.24,2.61,8.51,7.09,7.27,13-1-3.19-4-8.21-7.16-9,.42,5.3-.48,7.62-4.06,7.24h0l-.36-.05a10.16,10.16,0,0,1-1.29-.26c-.31-.08-.63-.17-1-.28l-.17-.05a25.2,25.2,0,0,0,2.2,4.24,14,14,0,0,0,1.8,2.25c.22.22.44.43.66.62l.39.32.08.06a9.28,9.28,0,0,0,1,.67l.18.1.45.22a4.22,4.22,0,0,0,.45.18l.51.16a6.44,6.44,0,0,0,1,.18,5.64,5.64,0,0,0,2.25-.26,6.17,6.17,0,0,0,2.06-1.18,5.89,5.89,0,0,0,.45-.42,7.57,7.57,0,0,0,.53-.6l.25-.33a4,4,0,0,0,.23-.34l.22-.36.24-.45a7.75,7.75,0,0,0,.44-1.07c0-.1.07-.21.1-.31a8.36,8.36,0,0,0,.36-1.75c0-.15,0-.3,0-.45v0A12.29,12.29,0,0,0,158,19Zm-2.46,18.21-.51,0-.21,0-.42-.07a5.54,5.54,0,0,1-.55-.14l-.41-.14-.3-.13-.35-.17c-.17-.09-.34-.18-.5-.28l-.45-.29-.3-.22-.24-.19a12.17,12.17,0,0,1-1-.84A20.22,20.22,0,0,1,149,33.14C147,30.85,145.29,28,143.54,26c-.93-1.1-1.94-2.31-3.08-3.55-.56-.61-1.16-1.23-1.8-1.85l-.09-.08c-.67-.64-1.39-1.27-2.16-1.88a26.58,26.58,0,0,0-10.79-5.19c-9.53-2.2-15.12,3-15.28,4.79-.15,1.6.65,3.23,3.44,3.43a6.79,6.79,0,0,0,.92,0c.31,0,.69,0,1.14,0,.29,0,.62,0,1,.08h.1l.41,0c5.41.52,16.06,2.74,24.72,8.68a63.92,63.92,0,0,0,7.17,5.25l1,.57c.39.21.78.4,1.18.58l.32.14c.21.1.42.18.63.26s.48.18.71.25h0c.23.08.45.14.68.2l.63.14.11,0L155,38h0l.22,0,.53,0a4.55,4.55,0,0,0,4.28-2.58A7.69,7.69,0,0,1,155.54,37.17Z"/></g><path class="cls-2" d="M56.1,67.26a1.94,1.94,0,0,0-1.73-.87,5.06,5.06,0,0,0-1.8.44l-.41.17a64,64,0,0,1-11,3.25,61.8,61.8,0,0,1-12.64,1.4q-9.07,0-13.25-2.27a7.25,7.25,0,0,1-4.17-6.73,8.11,8.11,0,0,1,1.76-5,12.6,12.6,0,0,1,5.69-3.86,29.83,29.83,0,0,1,9.9-1.65q4.32-.07,4.32-4.83a3,3,0,0,0-.65-2.16,3.35,3.35,0,0,0-2.23-.72q-6.27-.21-9-2.41a6.8,6.8,0,0,1-2.77-5.58,8.14,8.14,0,0,1,3.67-7q3.67-2.59,9.79-2.59,4.55,0,6.49,1.62A5.23,5.23,0,0,1,40,32.7a26.55,26.55,0,0,1-.36,3.24,11,11,0,0,0-.36,2.66,3.21,3.21,0,0,0,1.15,2.7,5,5,0,0,0,3.17.9A4.87,4.87,0,0,0,48,39.57a13.44,13.44,0,0,0,1.54-6.87,12.53,12.53,0,0,0-4.46-10q-4.47-3.86-13.39-3.86A33.25,33.25,0,0,0,19.52,21a21,21,0,0,0-8.82,6.16,14.08,14.08,0,0,0-3.28,9.18,11.43,11.43,0,0,0,2.27,6.91,11.78,11.78,0,0,0,6.52,4.32Q8.44,49.55,4.44,53.9a15,15,0,0,0-4,10.55,12.43,12.43,0,0,0,3,8.14q3,3.6,9.11,5.65a48.25,48.25,0,0,0,15.19,2.05A77.11,77.11,0,0,0,41.05,79.1a44,44,0,0,0,11-3.2,11.41,11.41,0,0,0,2.52-1.61,6,6,0,0,0,1-1.13,6.34,6.34,0,0,0,1-3.67A4,4,0,0,0,56.1,67.26Z"/><path class="cls-2" d="M73.45,69.06a2.39,2.39,0,0,0-1.59.72A11.54,11.54,0,0,1,69,71.65a6.7,6.7,0,0,1-2.77.72,4.74,4.74,0,0,1-3.53-1.3,7.83,7.83,0,0,1-1.8-4.24A107.33,107.33,0,0,0,73.77,44.51Q78.5,33.2,78.49,24.63q0-6-2-9.18a6.11,6.11,0,0,0-5.44-3.2q-6.12,0-10.55,8.06a68,68,0,0,0-6.69,19.3,102.56,102.56,0,0,0-2.27,20,41.89,41.89,0,0,0,.6,7.37,24.33,24.33,0,0,0,2.43,7.29,2.44,2.44,0,0,0,.14.28,10.64,10.64,0,0,0,10,5.72,12.93,12.93,0,0,0,8.49-3.1,5.94,5.94,0,0,0,2.16-4.82A4.76,4.76,0,0,0,74.85,70,1.59,1.59,0,0,0,73.45,69.06ZM62.07,40.19a99.09,99.09,0,0,1,3.67-14.84c1.4-4,2.64-6,3.75-6q2,0,2,5.47a46.13,46.13,0,0,1-3,15.44,93.12,93.12,0,0,1-8.14,16.89A108.42,108.42,0,0,1,62.07,40.19Z"/><path class="cls-2" d="M126.58,49.76l2.16-11.95a7.54,7.54,0,0,0,.08-1.22q0-3.68-4.11-3.68c-3.41,0-5.42,1.56-6,4.68q-1,5.11-2.16,12.17h-1.8a3.69,3.69,0,0,0-2.55,1A3.48,3.48,0,0,0,111,53.51a4.1,4.1,0,0,0,.9,2.59c.6.77,1.72,1.15,3.35,1.15l-1.94,10.8a8.28,8.28,0,0,1-1,3,1.78,1.78,0,0,1-1.54.94,3.67,3.67,0,0,1-2.6-1.66,13.67,13.67,0,0,1-2.3-5,29.55,29.55,0,0,1-.94-7.92,42.32,42.32,0,0,1,3-16.74,22.64,22.64,0,0,1,8.24-10.37,21.88,21.88,0,0,1,12.35-3.49c4,0,7,.86,9.07,2.59a8.81,8.81,0,0,1,3.1,7.13,12.08,12.08,0,0,1-1.91,6.69,13.15,13.15,0,0,1-5.11,4.61A17.38,17.38,0,0,1,126.58,49.76Zm24.9-15.12a14.69,14.69,0,0,0-.26-2.6c-.9-1.06-1.76-2.24-2.59-3.41-.31-.08-.63-.17-1-.28l-.17-.05a25.2,25.2,0,0,0,2.2,4.24,13.16,13.16,0,0,0,1.72,2.16v0l.07.07v0A.49.49,0,0,0,151.48,34.64ZM140,20.25a15.5,15.5,0,0,1,1.19,1.13l1,.23Zm-23,1.52h-.1c-.65.27-1.29.57-1.91.9s-1.18.64-1.75,1a30.93,30.93,0,0,0-11.81,13.43Q97.14,45.88,97.14,58a31.24,31.24,0,0,0,2,11.56,18.09,18.09,0,0,0,5.73,7.92,13.65,13.65,0,0,0,8.53,2.84c2.92,0,5.11-.78,6.55-2.34a12.73,12.73,0,0,0,2.88-6.73c.1-.53.33-2,.72-4.39q1.36-8,1.66-9.51a6.5,6.5,0,0,1,3.27,1.23,11.24,11.24,0,0,1,2.7,3.34c.91,1.56,2.16,4,3.75,7.24q2.94,6.12,6.22,8.64a12.68,12.68,0,0,0,8,2.52A15.13,15.13,0,0,0,157.47,78a25.4,25.4,0,0,0,2.28-1.67,35.53,35.53,0,0,0,4.71-4.77,6.82,6.82,0,0,0,1.36-4.47,4.45,4.45,0,0,0-.54-2.37,1.66,1.66,0,0,0-1.47-.87,2.55,2.55,0,0,0-1.95,1,43.23,43.23,0,0,1-4.22,4.45c-.36.32-.71.6-1,.84a7.24,7.24,0,0,1-4.39,1.55,6.25,6.25,0,0,1-4.58-2,23.19,23.19,0,0,1-4-6.34,25.07,25.07,0,0,0-3.75-6.12,10.68,10.68,0,0,0-5.32-3,25.62,25.62,0,0,0,9.28-4.4,19.45,19.45,0,0,0,5.73-6.8,18.09,18.09,0,0,0,1.76-5.69c0-.15,0-.3.05-.45a12.09,12.09,0,0,0,.08-1.21l-.17-.17v0a12.17,12.17,0,0,1-1-.84A20.22,20.22,0,0,1,149,33.14C147,30.85,145.29,28,143.54,26c-.93-1.1-1.94-2.31-3.08-3.55-.56-.61-1.16-1.23-1.8-1.85l-.09-.08Z"/><path class="cls-2" d="M197.68,64.74a1.66,1.66,0,0,0-1.47-.87,2.55,2.55,0,0,0-2,1c-.6.73-1.18,1.4-1.72,2A47.36,47.36,0,0,1,189,70.61a5.51,5.51,0,0,1-3.31,1.76,1.76,1.76,0,0,1-1.41-.65,2.61,2.61,0,0,1-.54-1.73,69.35,69.35,0,0,1,1.66-11.52,53.93,53.93,0,0,0,1.08-7.2q0-2.52-3.53-2.52a17.14,17.14,0,0,0-3.17.29,5.13,5.13,0,0,0-.9-2.19,2.79,2.79,0,0,0-2.12-.62,16,16,0,0,0-9.4,3.14,22.66,22.66,0,0,0-7.09,8.28,23.32,23.32,0,0,0-2.66,10.9c0,.26,0,.52,0,.78a12.92,12.92,0,0,0,2.11,7c.17.24.34.47.53.7a8.76,8.76,0,0,0,7.13,3.24q5.68,0,9.43-6.05a9.88,9.88,0,0,0,3,4.43,6.72,6.72,0,0,0,4.35,1.62,10.67,10.67,0,0,0,6.41-2.52c.86-.66,1.71-1.37,2.54-2.15a38.37,38.37,0,0,0,3.73-4,6.65,6.65,0,0,0,1.36-4.47A4.45,4.45,0,0,0,197.68,64.74Zm-22.57,1.44a12.16,12.16,0,0,1-2.09,5A4,4,0,0,1,170,73a3,3,0,0,1-2.48-1.08,5.11,5.11,0,0,1-.9-3.31A19.5,19.5,0,0,1,168.13,61a15.18,15.18,0,0,1,4.07-5.79,8.69,8.69,0,0,1,5.58-2.27Z"/><path class="cls-2" d="M233.4,64.74a1.68,1.68,0,0,0-1.48-.87,2.52,2.52,0,0,0-1.94,1q-1.59,1.91-2.88,3.3c-.93,1-1.73,1.82-2.42,2.43a5.65,5.65,0,0,1-3.42,1.76c-1.39,0-2.08-1-2.08-2.88a50,50,0,0,1,1.36-8.28,57.73,57.73,0,0,0,1.59-10.15q0-4.68-4.68-4.68A10.53,10.53,0,0,0,212.23,48a21,21,0,0,0-5.8,5.55,41,41,0,0,0-5.33,10.08,50.69,50.69,0,0,1,.72-5.33c.29-1.44.67-3.12,1.16-5a27.59,27.59,0,0,0,1.08-5.18,1.49,1.49,0,0,0-.58-1.37,4.09,4.09,0,0,0-2-.36,7.5,7.5,0,0,0-4.14,1,5.43,5.43,0,0,0-2.12,3.06,58.17,58.17,0,0,0-2.66,16.48c0,.43,0,.87,0,1.3a36.71,36.71,0,0,0,.6,7.43,12.11,12.11,0,0,0,.52,1.79,3.93,3.93,0,0,0,3.85,2.88,4.16,4.16,0,0,0,3.28-1.19,11.16,11.16,0,0,0,1.83-4.57,49.14,49.14,0,0,1,2.85-8.35,38.48,38.48,0,0,1,3.45-6.37c1.13-1.61,2-2.42,2.63-2.42s.79.39.79,1.16a37.43,37.43,0,0,1-.93,6.26,45.38,45.38,0,0,0-1,7.2,9,9,0,0,0,1.87,6.16,7,7,0,0,0,5.55,2.12,14,14,0,0,0,8.1-2.45,28.81,28.81,0,0,0,3.7-3,34.15,34.15,0,0,0,3-3.22,6.66,6.66,0,0,0,1.37-4.47A4.54,4.54,0,0,0,233.4,64.74Z"/><path class="cls-2" d="M259.89,64.74a1.66,1.66,0,0,0-1.48-.87,2.53,2.53,0,0,0-1.94,1c-.47.56-.93,1.09-1.4,1.58a23.73,23.73,0,0,1-5.33,4.36,12.87,12.87,0,0,1-6.37,2q-7.27,0-7.28-8.35a16.85,16.85,0,0,1,.87-5.54,10.41,10.41,0,0,1,2.3-4,4.31,4.31,0,0,1,3.1-1.48,1.72,1.72,0,0,1,1.33.51,2,2,0,0,1,.47,1.44,6.38,6.38,0,0,1-.36,2c-.05.2-.12.51-.22.94a5.78,5.78,0,0,0-.14,1.15,2.13,2.13,0,0,0,.83,1.8,3.46,3.46,0,0,0,2.19.65A4,4,0,0,0,250,59.84a9.28,9.28,0,0,0,1.34-5.11,8.44,8.44,0,0,0-2.2-6,8,8,0,0,0-6.16-2.34,14,14,0,0,0-7.7,2.37,17.61,17.61,0,0,0-6,6.77A21.8,21.8,0,0,0,227,65.75a19.1,19.1,0,0,0,.15,2.43,14,14,0,0,0,2.51,6.62,12.58,12.58,0,0,0,1.26,1.49q3.93,4,11,4A21,21,0,0,0,251,78a23.14,23.14,0,0,0,4.07-2.5,23.44,23.44,0,0,0,4-3.94,7,7,0,0,0,1.37-4.47A4.45,4.45,0,0,0,259.89,64.74Z"/><path class="cls-2" d="M296,64.74a1.66,1.66,0,0,0-1.47-.87,2.55,2.55,0,0,0-1.95,1c-1,1.2-1.92,2.25-2.74,3.15a34.92,34.92,0,0,1-2.55,2.58,5.65,5.65,0,0,1-3.42,1.76c-1.39,0-2.09-1-2.09-2.88a50.41,50.41,0,0,1,1.37-8.28,57.73,57.73,0,0,0,1.59-10.15c0-3.12-1.57-4.68-4.68-4.68A10.59,10.59,0,0,0,274.86,48a20.73,20.73,0,0,0-5.75,5.51,41.34,41.34,0,0,0-5.3,10c0-2.64.08-5.2.22-7.7q9.57-10.44,13.82-18.25a31.49,31.49,0,0,0,4.25-15.09,12.32,12.32,0,0,0-2.05-7.38,6.34,6.34,0,0,0-5.36-2.84q-6.19,0-10.62,8.17a69.16,69.16,0,0,0-6.7,20.2,124.83,124.83,0,0,0-2.27,23.11l0,2.73,0,3c-.05.91-.07,2.14-.07,3.67,0,.87,0,1.66.07,2.36a10.15,10.15,0,0,0,.61,3.22,2.79,2.79,0,0,0,2.85,1.55q5.38,0,6.76-5.76a51.83,51.83,0,0,1,2.81-8.35,34.46,34.46,0,0,1,3.46-6.37c1.15-1.61,2-2.42,2.66-2.42s.79.39.79,1.16a37.43,37.43,0,0,1-.93,6.26,44.2,44.2,0,0,0-1,7.2,9,9,0,0,0,1.87,6.16,7,7,0,0,0,5.54,2.12,13.55,13.55,0,0,0,8-2.45,32.85,32.85,0,0,0,3.88-3.2c1-.93,2-2,2.93-3.06a6.65,6.65,0,0,0,1.36-4.47A4.45,4.45,0,0,0,296,64.74Zm-28.8-31.65a63.9,63.9,0,0,1,3.06-10c1.06-2.48,2-3.71,2.88-3.71.63,0,1.11.41,1.44,1.22a9.55,9.55,0,0,1,.51,3.53,26.65,26.65,0,0,1-2.92,11.23,51.12,51.12,0,0,1-7.38,11.45A134,134,0,0,1,267.23,33.09Z"/><path class="cls-2" d="M317,54a13.19,13.19,0,0,0-4.53-5.58,12.34,12.34,0,0,0-7.28-2.12,13.69,13.69,0,0,0-7.92,2.41,16.63,16.63,0,0,0-5.58,6.69,22.31,22.31,0,0,0-2,9.76,19.16,19.16,0,0,0,.21,2.86,17.62,17.62,0,0,0,1.3,4.56,13.87,13.87,0,0,0,1.11,2,13.08,13.08,0,0,0,3.39,3.53,12.22,12.22,0,0,0,7.24,2.12,13.72,13.72,0,0,0,7.88-2.41,16.67,16.67,0,0,0,5.65-6.7,21.86,21.86,0,0,0,2.09-9.75A18.27,18.27,0,0,0,317,54Zm-9.18,15.84c-1.13,1.78-2.51,2.66-4.14,2.66a4.32,4.32,0,0,1-3.6-1.94c-1-1.3-1.44-3.31-1.44-6,0-3.45.56-6.06,1.69-7.81a5,5,0,0,1,4.29-2.63,4.17,4.17,0,0,1,3.45,2,10.23,10.23,0,0,1,1.44,6Q309.53,67.19,307.84,69.85Z"/><text class="cls-3" transform="translate(0 100.59)">MEXICAN RE<tspan class="cls-4" x="174.61" y="0">S</tspan><tspan class="cls-5" x="189.49" y="0">T</tspan><tspan class="cls-6" x="205.11" y="0">A</tspan><tspan x="223.61" y="0">URANT</tspan></text></g></g></svg>